<?xml version="1.0" encoding="iso-8859-1"?>
<!-- Generator: Adobe Illustrator 19.0.0, SVG Export Plug-In . SVG Version: 6.00 Build 0)  -->
<svg version="1.1" id="Capa_1" xmlns="http://www.w3.org/2000/svg" xmlns:xlink="http://www.w3.org/1999/xlink" x="0px" y="0px"
	 viewBox="0 0 387.129 387.129" style="enable-background:new 0 0 387.129 387.129;" xml:space="preserve">
<g>
	<g>
		<path d="M385.962,166.499c-0.104-1.876-0.953-3.634-2.36-4.88h0c-2.963-2.531-7.415-2.191-9.96,0.76c-31,36-52.92,18.68-77.2-0.56
			c-18.4-14.6-37.96-30.12-63.76-30.12c-8.662-0.048-17.232,1.781-25.12,5.36c-5.12,2.36-9.832,5.519-13.96,9.36
			c-4.13-3.826-8.842-6.972-13.96-9.32c-7.888-3.579-16.458-5.408-25.12-5.36c-25.92,0-48.92,15.68-70.12,30.12
			c-7,4.8-13.84,9.44-20.32,13.16c-18.48,10.6-35.04,13.76-49.64-11.32c-1.823-3.434-6.085-4.74-9.519-2.917
			c-2.016,1.071-3.388,3.052-3.681,5.317c-1.902,12.407-1.618,25.051,0.84,37.36c2.832,14.445,10.857,27.351,22.56,36.28
			c11.461,8.161,24.844,13.206,38.84,14.64c20.995,2.244,42.219,0.891,62.76-4c15.329-3.158,30.14-8.449,44-15.72
			c8.694-4.62,16.583-10.618,23.36-17.76c6.765,7.078,14.626,13.021,23.28,17.6c13.86,7.271,28.671,12.562,44,15.72
			c20.541,4.891,41.765,6.244,62.76,4c13.996-1.435,27.379-6.479,38.84-14.64c11.717-8.916,19.746-21.828,22.56-36.28
			C387.471,191.177,387.782,178.727,385.962,166.499z"/>
	</g>
</g>
<g>
</g>
<g>
</g>
<g>
</g>
<g>
</g>
<g>
</g>
<g>
</g>
<g>
</g>
<g>
</g>
<g>
</g>
<g>
</g>
<g>
</g>
<g>
</g>
<g>
</g>
<g>
</g>
<g>
</g>
</svg>
